<?xml version="1.0" encoding="UTF-8"?>
<svg id="Capa_1" data-name="Capa 1" xmlns="http://www.w3.org/2000/svg" version="1.1" viewBox="0 0 405 200">
  <defs>
    <style>
      .cls-1 {
        fill: #000;
        stroke-width: 0px;
      }
    </style>
  </defs>
  <path class="cls-1" d="M147.56,110.79c-1.67,0-3.39.33-5.06.33-2.38,0-3.13-.97-3.13-2.2,0-2.23,2.31-1.19,3.13-3.57.86-2.61,2.16-11.54,2.16-14.33s-2.31-1.82-2.31-3.87c0-2.16,1.97-2.64,3.76-2.57.93.04,1.86.07,2.83.07.97.04,1.94.04,2.9.04h5.84c1.34,0,2.16-.11,2.72-.22.56-.11.89-.22,1.27-.22,1.27,0,3.13,2.05,3.13,5.55,0,1.38-.67,2.87-2.23,2.87-3.01,0-1.3-3.68-5.73-3.68-3.76,0-3.28.67-3.68,4.61-.11,1.45-.41,1.75.82,1.75,2.2,0,.93-3.42,3.24-3.42s2.49,2.98,2.49,4.65c0,1.97-.67,6.81-3.28,6.81-2.75,0-.59-3.76-2.9-3.76-1.56,0-1.15,3.46-1.15,4.62,0,2.34.04,2.27,2.49,2.27,5.81,0,4.47-4.8,7.48-4.8,1.79,0,2.23,1.45,2.23,2.98,0,3.46-2.57,6.36-3.94,6.36-.22,0-.45-.07-.86-.15-.45-.04-1.08-.11-2.27-.11h-9.94Z"/>
  <path class="cls-1" d="M176.4,101.23c-.22,1.6-1.12,5.36,1.56,5.36,3.13,0,4.5-4.5,4.5-7.03s-2.01-4.13-2.01-5.66c0-1.67,1.86-2.12,3.24-2.12,2.53,0,3.24,1.86,3.24,4.13,0,7.41-3.87,15.37-12.24,15.37-3.39,0-6.96-1.75-6.96-5.58,0-2.46,1.12-6.74,1.12-7.85,0-.67-.3-.97-.97-1-.82-.07-1.34,0-1.34-1.04,0-2.94,6.14-4.06,8.34-4.06,1.53,0,2.53.52,2.53,2.2,0,2.23-.67,4.99-1,7.29Z"/>
  <path class="cls-1" d="M207.97,95.98c0,4.5-5.02,8-9.23,8-.52,0-1.45,0-1.45.78,0,1.08,1.34,1.67,2.27,1.67,2.68,0,4.73-2.12,5.92-2.12.78,0,1.49.82,1.49,1.56,0,1.97-2.49,3.2-4.02,3.91-2.08.93-4.09,1.49-6.44,1.49-4.54,0-8.49-1.97-8.3-6.96.33-7.74,7.55-12.77,14.33-12.77,2.94,0,5.43,1.15,5.43,4.43ZM197.21,99.89c0,.45.15,1.04.67,1.04,1.04,0,2.87-2.75,2.75-4.54-.04-.48-.26-1.15-.86-1.15-1.53,0-2.57,3.46-2.57,4.65Z"/>
  <path class="cls-1" d="M223.57,99c0-.67-.33-1.19-1.04-1.19-2.72,0-3.2,5.66-3.42,7.93-.37,4.09-1.19,5.06-5.99,5.32-1.34.07-2.72-.3-2.72-1.94,0-1.86,1.71-7.44,1.6-10.68,0-.74-.26-1.19-1.04-1.19h-.37c-.74,0-1.04-.45-1.04-1.19,0-1.04,1.08-1.79,1.9-2.23,1.56-.93,4.99-2.05,6.77-2.05,2.27,0,1.27,3.27,2.42,3.27.93,0,3.98-3.31,7.22-3.31,2.16,0,4.24,1.27,4.24,3.61,0,2.64-1.3,7.11-1.3,9.38,0,1.49,1.79.56,1.79,2.01,0,2.72-5.62,4.32-7.74,4.32-1.64,0-2.68-.82-2.68-2.49,0-1.9.67-4.32.97-6.25l.45-3.31Z"/>
  <path class="cls-1" d="M244.08,102.53c-.37,1.64.11,2.64,1.04,2.64s1.56-.71,2.12-.71c.78,0,1,.71,1,1.34,0,2.9-7.07,5.29-9.23,5.29s-3.72-1.08-3.72-3.46c0-1.19.19-2.38.37-3.54l1.12-6.55c.26-1.45.15-1.64-1.34-1.64-.89,0-1.38-.26-1.38-1.27,0-1.6.78-2.49,2.34-2.64,1.19-.15,1.3-.52,1.82-2.23.33-1.12.74-2.2,1.75-2.68,1.3-.63,3.2-.82,4.65-.82.93,0,1.41.41,1.41,1.38-.07.74-.33,2.87-.33,3.46,0,1.12,1.23.74,2.34.74.48,0,.93.11.93.67,0,.52-.11,1.12-.19,1.6-.11.82-.11,1.6-1.12,1.6-2.57,0-2.57-.11-3.13,3.13l-.48,3.68Z"/>
  <path class="cls-1" d="M264.18,97.4c-1.49,0-1.49-2.16-2.9-2.16-.63,0-1.15.45-1.15,1.08,0,2.42,5.32,4.21,5.32,8.67s-5.43,6.29-9.19,6.29c-2.38,0-6.77-.67-6.77-3.8,0-1.12.71-2.64,1.97-2.64,1.56,0,1.3,2.49,3.16,2.49.74,0,1.6-.41,1.6-1.23,0-1.97-4.65-3.91-4.65-8.08,0-4.47,5.1-6.48,8.93-6.48,1.94,0,5.66.63,5.66,3.13,0,1.12-.67,2.72-1.97,2.72Z"/>
</svg>