<?xml version="1.0" encoding="UTF-8"?>
<svg id="Capa_1" data-name="Capa 1" xmlns="http://www.w3.org/2000/svg" version="1.1" viewBox="0 0 405 200">
  <defs>
    <style>
      .cls-1 {
        fill: #000;
        stroke-width: 0px;
      }
    </style>
  </defs>
  <path class="cls-1" d="M116.77,110.79c-1.67,0-3.39.33-5.06.33-2.38,0-3.13-.97-3.13-2.2,0-2.23,2.31-1.19,3.13-3.57.86-2.61,2.16-11.54,2.16-14.33s-2.31-1.82-2.31-3.87c0-2.16,1.97-2.64,3.76-2.57.93.04,1.86.07,2.83.07.97.04,1.94.04,2.9.04h5.84c1.34,0,2.16-.11,2.72-.22.56-.11.89-.22,1.26-.22,1.27,0,3.13,2.05,3.13,5.55,0,1.38-.67,2.87-2.23,2.87-3.01,0-1.3-3.68-5.73-3.68-3.76,0-3.28.67-3.68,4.61-.11,1.45-.41,1.75.82,1.75,2.2,0,.93-3.42,3.24-3.42s2.49,2.98,2.49,4.65c0,1.97-.67,6.81-3.27,6.81-2.75,0-.6-3.76-2.9-3.76-1.56,0-1.15,3.46-1.15,4.62,0,2.34.04,2.27,2.49,2.27,5.81,0,4.47-4.8,7.48-4.8,1.79,0,2.23,1.45,2.23,2.98,0,3.46-2.57,6.36-3.95,6.36-.22,0-.45-.07-.86-.15-.45-.04-1.08-.11-2.27-.11h-9.94Z"/>
  <path class="cls-1" d="M153.32,98.25c-.82,0-1.19-.89-1.82-.89-.56,0-2.27,1.79-2.27,2.34,0,.48,1.67,3.83,2.31,3.83.37,0,.93-.6,1.64-.6.82,0,1.53.78,1.53,1.6,0,2.49-4.88,6.51-7.29,6.51-2.2,0-3.13-4.62-3.95-4.95-.41-.15-3.68,4.95-5.62,4.95-1.79,0-2.23-3.09-2.23-4.35,0-.93.41-2.64,1.64-2.64.93,0,1.19.97,1.71.97.45,0,2.53-2.08,2.53-2.57,0-.52-1.53-3.61-2.23-3.61-.45,0-.89.74-1.64.74-.97,0-1.49-.97-1.49-1.82,0-2.9,5.43-6.03,7.74-6.03.93,0,1.56.52,2.2,2.08.26.6,1.15,2.12,1.26,2.12.48,0,3.09-4.17,4.73-4.17,1.82,0,2.98,2.87,2.98,4.39,0,.89-.71,2.08-1.71,2.08Z"/>
  <path class="cls-1" d="M159.42,100.41c0-.63,0-1.6-.26-2.16-.19-.41-.67-.45-1.08-.48-.89-.04-1.53-.15-1.53-1.34,0-1.6,2.05-2.23,3.24-2.75,1.27-.56,4.09-1.94,5.36-1.94,1.19,0,1.56.89,1.6,1.6,0,.45.11.97.71.97.93,0,2.64-2.6,6.48-2.6s5.02,3.91,5.02,7.03c0,5.36-3.54,12.54-9.71,12.54-.48,0-.89-.11-1.3-.26-.37-.11-.67-.22-.97-.22-1.04,0-.56,2.61-.33,3.09.37.82,1.94.71,1.94,1.86,0,1.9-2.72,2.08-4.06,2.08-2.01,0-8.04-.3-8.04-3.16,0-.82.37-1.12.97-1.6.82-.67.86-1.12,1-2.16l.97-10.49ZM166.57,106.18c0,.67.11,1.15.89,1.15,2.2,0,3.28-6.44,3.28-8.08,0-.78-.15-1.9-1.19-1.9-2.2,0-2.98,7.22-2.98,8.82Z"/>
  <path class="cls-1" d="M190.36,103.98c0,.45.04,1.3.63,1.3.37,0,.74-.11,1.12-.11.63,0,.82.63.82,1.15,0,3.09-6.07,4.73-8.49,4.73-2.01,0-3.24-.93-3.01-3.61.52-6.03,1.67-12.88,2.16-17.23.08-.6-.07-.89-.71-.89-.3,0-.6.07-.89.07-.75,0-1.15-.33-1.15-1.08,0-1.86,1.71-2.46,3.2-2.94,1.82-.6,4.28-1.19,6.18-1.19,1.3,0,2.12.33,2.12,1.79l-1.97,18.01Z"/>
  <path class="cls-1" d="M194.56,103.91c0-7.11,5.58-12.36,12.65-12.36,4.65,0,8.49,2.49,8.49,7.37,0,7.11-5.58,12.36-12.65,12.36-4.65,0-8.49-2.49-8.49-7.37ZM203.79,99.03c-.41,2.01-.74,4.54-.74,6.59,0,.86.22,1.71,1.19,1.71,1.56,0,1.86-2.23,2.08-3.35.37-1.9.89-4.76.89-6.66,0-.86-.19-1.82-1.23-1.82-1.56,0-1.94,2.38-2.2,3.54Z"/>
  <path class="cls-1" d="M227.99,105.84c.22,3.61-1.34,5.02-6.44,5.25-1.38.07-2.87-.3-2.87-1.97,0-2.23,1.49-6.88,1.56-10.35.04-1-.07-1.3-1.08-1.3-1.15,0-1.75-.3-1.75-1.64,0-2.01,3.01-2.6,4.43-3.31,1-.52,2.23-.97,3.42-.97,2.27,0,1.27,3.54,2.46,3.54,1.08,0,.97-3.57,4.43-3.57,2.42,0,4.06,2.08,4.06,4.43s-1.12,4.47-3.65,4.47c-1.34,0-1.86-.52-2.49-1.6-.11-.22-.45-.89-.74-.89-.52,0-.74,1.56-.78,1.9l-.56,6.03Z"/>
  <path class="cls-1" d="M239.34,100.23c.15-.86.33-1.56.33-2.05s-.19-.74-.82-.74c-.56,0-1.45.04-1.45-1.3,0-1.6,1.71-2.31,2.94-2.83,1.75-.74,4.58-1.56,6.48-1.56,1.15,0,1.67.6,1.67,1.71,0,1.6-.56,4.76-.63,5.28-.07.41-.74,4.69-.93,6.14-.07.71.41.71,1,.71.71,0,1.23.04,1.23.93,0,2.83-5.88,4.54-8,4.54-1.41,0-3.01-.86-3.01-2.42,0-.71.11-1.38.22-2.08l.97-6.33ZM239.12,88.17c0-2.98,5.32-4.5,7.7-4.5,1.34,0,3.13.52,3.09,2.12-.04,2.72-5.25,4.58-7.48,4.43-1.27-.07-3.31-.41-3.31-2.05Z"/>
  <path class="cls-1" d="M264.95,99c0-.67-.33-1.19-1.04-1.19-2.72,0-3.2,5.66-3.42,7.93-.37,4.09-1.19,5.06-5.99,5.32-1.34.07-2.72-.3-2.72-1.94,0-1.86,1.71-7.44,1.6-10.68,0-.74-.26-1.19-1.04-1.19h-.37c-.74,0-1.04-.45-1.04-1.19,0-1.04,1.08-1.79,1.9-2.23,1.56-.93,4.99-2.05,6.77-2.05,2.27,0,1.27,3.27,2.42,3.27.93,0,3.98-3.31,7.22-3.31,2.16,0,4.24,1.27,4.24,3.61,0,2.64-1.3,7.11-1.3,9.38,0,1.49,1.79.56,1.79,2.01,0,2.72-5.62,4.32-7.74,4.32-1.64,0-2.68-.82-2.68-2.49,0-1.9.67-4.32.97-6.25l.45-3.31Z"/>
  <path class="cls-1" d="M290.6,106.63c2.53,0,4.69,1.3,4.69,4.06,0,5.21-6.74,6.77-10.87,6.77-2.64,0-8.71-.56-8.71-4.21,0-1.38,1.04-1.6,1.04-2.12,0-.48-1.38-1.08-1.38-2.94,0-1.67,1.27-2.83,2.72-3.42.37-.15.82-.22.82-.71,0-.37-.19-.45-.45-.67-1.34-1.15-1.97-2.2-1.97-4.02,0-5.32,5.96-7.74,10.46-7.74.63,0,1.27.07,1.9.15.63.07,1.26.15,1.9.15,2.01,0,2.05-2.42,3.46-2.42,1.15,0,2.49,1.53,2.49,2.64s-.78,1.71-.78,2.08c0,.3,1.15,1.23,1,3.2-.48,5.99-5.92,7.63-10.57,7.63-1.82,0-2.87-.33-3.39-.33-.48,0-.86.37-.86.86,0,1.34,2.42,1.19,3.24,1.19l5.25-.15ZM287.69,113.21c0-.48-.41-.67-.82-.6-2.9.41-5.88-.37-6.62-.33-.3.04-.3.48-.3.67,0,1.6,2.87,1.82,3.98,1.82.89,0,3.76-.22,3.76-1.56ZM288.59,96.13c.11-.82-.19-1.45-1.15-1.45-2.16,0-2.38,4.24-2.49,5.77-.07.86.22,1.38,1.19,1.38,2.05,0,2.27-4.13,2.46-5.69Z"/>
</svg>