<?xml version="1.0" encoding="UTF-8"?>
<svg id="Capa_0" data-name="Capa 0" xmlns="http://www.w3.org/2000/svg" viewBox="0 0 1920 1080">
  <defs>
    <style>
      .cls-1 {
        fill: #fff;
        stroke-width: 0px;
      }
    </style>
  </defs>
  <g>
    <path class="cls-1" d="M356.28,533.9c-12.96,25.17-27.39,38.87-43.31,38.87-21.84,0-29.24-26.28-33.69-43.31-2.59-9.62-18.51-74.03-26.65-74.03-8.88,0-43.68,69.96-47.38,78.1-6.29,14.44-20.36,39.24-41.83,39.24-24.43,0-28.87-31.1-33.32-49.23l-41.09-158.8c-4.07-15.91-27.02-6.66-27.02-28.13,0-24.43,37.39-29.24,87.36-29.24,17.4,0,45.53.74,45.53,24.06,0,18.51-18.88,11.85-18.88,34.05,0,11.47,13.7,81.8,22.21,81.8,10.73,0,37.38-55.15,37.38-71.44,0-27.39-24.8-22.58-24.8-41.09,0-14.44,12.22-27.39,76.99-27.39,38.13,0,55.15,7.77,55.15,21.84,0,24.43-22.95,12.22-22.95,33.68s17.03,87.36,27.02,87.36c6.29,0,14.81-19.25,17.03-24.06,6.29-14.07,25.54-53.3,25.54-69.96,0-13.33-15.55-9.62-15.55-26.65,0-15.91,18.51-22.21,59.23-22.21,14.81,0,46.64,0,46.64,21.47s-25.17,12.96-35.54,32.95l-88.1,172.12Z"/>
    <path class="cls-1" d="M623.16,394.35c-1.48,22.21-8.14,55.52-11.1,95.5-.37,5.92-1.85,17.77.37,23.69,1.48,4.44,4.07,4.07,8.14,4.44,5.55.74,9.25,3.33,9.25,9.26,0,24.06-54.04,45.53-74.4,45.53-32.95,0-17.03-31.47-28.87-31.47-9.62,0-27.76,33.32-65.89,33.32-34.06,0-48.12-29.98-46.64-59.97,2.96-66.63,44.42-128.81,101.42-134,25.91-2.59,36.28,15.18,47.01,15.18,4.07,0,10.73-4.07,14.07-5.92,10.36-5.18,19.99-9.62,31.46-9.62,10.37,0,15.92,3.7,15.18,14.07ZM548.02,433.59c0-4.81-1.48-12.21-7.4-11.84-19.62,1.48-44.42,56.63-44.05,80.32,0,5.55,1.11,15.17,8.51,14.44,19.62-1.48,43.68-64.41,42.94-82.92Z"/>
    <path class="cls-1" d="M777.15,452.47c0-6.66-3.33-11.85-10.37-11.85-27.02,0-31.83,56.26-34.05,78.84-3.7,40.72-11.85,50.34-59.6,52.93-13.32.74-27.02-2.96-27.02-19.25,0-18.51,17.03-74.03,15.92-106.24,0-7.4-2.59-11.85-10.37-11.85h-3.7c-7.41,0-10.37-4.44-10.37-11.85,0-10.36,10.73-17.77,18.88-22.21,15.55-9.25,49.6-20.36,67.37-20.36,22.58,0,12.59,32.57,24.06,32.57,9.25,0,39.61-32.94,71.81-32.94,21.47,0,42.2,12.59,42.2,35.91,0,26.28-12.95,70.7-12.95,93.28,0,14.81,17.77,5.55,17.77,19.99,0,27.02-55.89,42.94-76.99,42.94-16.29,0-26.65-8.15-26.65-24.8,0-18.88,6.66-42.94,9.62-62.19l4.44-32.94Z"/>
    <path class="cls-1" d="M1000.35,389.54c7.03,0,9.63-22.95,9.63-27.76s-2.22-8.15-7.03-8.15c-2.59,0-5.18.74-7.77.74-7.4,0-11.1-4.07-11.1-11.47,0-16.28,16.66-22.58,29.98-27.02,14.44-4.81,45.53-11.1,60.33-11.1,11.48,0,17.03,6.66,17.03,17.77l-1.48,15.92-8.88,64.04-7.03,50.34-4.81,51.45c0,10.36.74,12.22,10.73,13.32,6.29.74,10.36,3.33,10.73,10.37,1.48,23.32-61.82,44.42-77.73,44.79-18.14.74-19.25-9.25-21.47-24.06-.37-3.7-2.22-9.62-7.03-9.62-7.4,0-29.24,35.54-67.37,35.54-35.9,0-45.53-26.28-46.27-58.11-.74-53.3,33.32-136.22,97.72-138.07,18.88-.37,26.65,11.1,31.83,11.1ZM1002.57,432.85c0-5.18-1.11-12.96-9.63-12.96-21.84,0-39.61,62.92-39.24,83.29.37,6.29,1.85,11.85,8.51,11.47,21.84-.37,40.72-62.19,40.35-81.8Z"/>
    <path class="cls-1" d="M1289.07,422.48c0,44.79-49.97,79.59-91.8,79.59-5.18,0-14.44,0-14.44,7.77,0,10.73,13.33,16.66,22.58,16.66,26.65,0,47.01-21.1,58.86-21.1,7.77,0,14.81,8.15,14.81,15.55,0,19.62-24.8,31.83-39.98,38.87-20.73,9.25-40.72,14.81-64.04,14.81-45.16,0-84.39-19.62-82.55-69.22,3.33-76.99,75.14-126.96,142.51-126.96,29.24,0,54.04,11.47,54.04,44.05ZM1182.1,461.35c0,4.44,1.48,10.36,6.66,10.36,10.36,0,28.5-27.39,27.39-45.16-.37-4.81-2.59-11.47-8.51-11.47-15.18,0-25.54,34.42-25.54,46.27Z"/>
    <path class="cls-1" d="M1398.27,520.58c2.22,35.91-13.33,49.97-64.04,52.19-13.69.74-28.5-2.96-28.5-19.62,0-22.21,14.81-68.48,15.55-102.9.37-9.99-.74-12.96-10.74-12.96-11.47,0-17.4-2.96-17.4-16.28,0-19.99,29.98-25.91,44.05-32.95,10-5.18,22.21-9.62,34.06-9.62,22.58,0,12.59,35.16,24.43,35.16,10.73,0,9.62-35.54,44.05-35.54,24.06,0,40.35,20.73,40.35,44.05s-11.1,44.42-36.28,44.42c-13.32,0-18.51-5.18-24.8-15.92-1.11-2.22-4.44-8.88-7.4-8.88-5.18,0-7.4,15.54-7.77,18.88l-5.55,59.97Z"/>
    <path class="cls-1" d="M1667,422.48c0,44.79-49.97,79.59-91.8,79.59-5.18,0-14.44,0-14.44,7.77,0,10.73,13.33,16.66,22.58,16.66,26.65,0,47.01-21.1,58.86-21.1,7.77,0,14.81,8.15,14.81,15.55,0,19.62-24.8,31.83-39.98,38.87-20.73,9.25-40.72,14.81-64.04,14.81-45.16,0-84.4-19.62-82.55-69.22,3.33-76.99,75.14-126.96,142.51-126.96,29.24,0,54.04,11.47,54.04,44.05ZM1560.03,461.35c0,4.44,1.48,10.36,6.66,10.36,10.36,0,28.5-27.39,27.39-45.16-.37-4.81-2.59-11.47-8.51-11.47-15.18,0-25.54,34.42-25.54,46.27Z"/>
    <path class="cls-1" d="M1776.2,520.58c2.22,35.91-13.33,49.97-64.04,52.19-13.7.74-28.5-2.96-28.5-19.62,0-22.21,14.81-68.48,15.55-102.9.37-9.99-.74-12.96-10.73-12.96-11.47,0-17.4-2.96-17.4-16.28,0-19.99,29.98-25.91,44.05-32.95,10-5.18,22.21-9.62,34.06-9.62,22.58,0,12.59,35.16,24.43,35.16,10.73,0,9.62-35.54,44.05-35.54,24.06,0,40.35,20.73,40.35,44.05s-11.1,44.42-36.28,44.42c-13.32,0-18.51-5.18-24.8-15.92-1.11-2.22-4.44-8.88-7.41-8.88-5.18,0-7.4,15.54-7.77,18.88l-5.55,59.97Z"/>
  </g>
  <g>
    <path class="cls-1" d="M614.72,772.47l-.31-.31v-2.14l.31-.31c0-.2.2-.31.61-.31,1.22,0,2.14-.41,2.75-1.22.61-.61.92-1.32.92-2.14v-128.24c0-1.02-.3-1.84-.92-2.45-.61-.61-1.53-.92-2.75-.92-.21,0-.41-.1-.61-.3l-.31-.31v-2.45h.31l.61-.61h28.77c1.84,0,4.39.31,7.65.92,3.26.61,6.68,1.79,10.25,3.52,3.57,1.74,7.14,4.03,10.71,6.89,3.57,2.86,6.58,6.53,9.03,11.02,0,.61.31.61.92,0l24.48-21.42c.61-.61,1.22-.92,1.84-.92h27.85c.61,0,.92.41.92,1.22v1.53c0,.61-.31.92-.92.92-2.45,0-3.67,1.12-3.67,3.37v128.24c0,2.25,1.23,3.36,3.67,3.36.61,0,.92.31.92.92v1.53c0,.61-.31.92-.92.92h-32.75c-.21,0-.41-.1-.61-.31v-.31c-.2,0-.31-.1-.31-.31v-1.53c0-.2.1-.31.31-.31v-.31c0-.2.2-.31.61-.31h.31c1.02,0,1.84-.41,2.45-1.22.81-.81,1.22-1.53,1.22-2.14v-104.06c0-.81-.31-.92-.92-.31l-19.59,16.22v44.38c0,2.25,1.22,3.37,3.67,3.37.61,0,.92.41.92,1.22v1.53c0,.61-.3.92-.92.92h-32.75c-.21,0-.31-.05-.31-.15,0-.1-.11-.15-.31-.15v-.31c0-.2-.11-.31-.31-.31v-1.53c0-.2.05-.31.15-.31s.15-.1.15-.31l.61-.61h.31c1.02,0,1.84-.31,2.45-.92.81-.61,1.22-1.43,1.22-2.45v-44.38c0-1.22-.26-2.91-.76-5.05-.51-2.14-1.38-4.33-2.6-6.58-1.22-2.24-3.01-4.29-5.36-6.12-2.35-1.84-5.36-3.06-9.03-3.67-.41,0-.61.21-.61.61v108.96c0,1.02.35,1.84,1.07,2.45.71.61,1.58.92,2.6.92.81,0,1.22.31,1.22.92v1.53c0,.61-.41.92-1.22.92h-32.44c-.41,0-.61-.1-.61-.31Z"/>
    <path class="cls-1" d="M753.26,771.86v-1.84c0-.41.31-.61.92-.61h.61c.41-.2.76-.35,1.07-.46.31-.1.66-.35,1.07-.76.61-.61.92-1.32.92-2.14v-128.24c0-1.02-.3-1.84-.92-2.45l-.31-.31h-.31v-.31h-.61l-.3-.31h-1.22c-.61,0-.92-.3-.92-.92v-1.53c0-.81.31-1.22.92-1.22h92.43c1.02,0,1.53.51,1.53,1.53l-13.47,25.4c0,.61-.31.92-.92.92h-1.84c-.61,0-.92-.41-.92-1.22,0-1.02-.36-1.84-1.07-2.45-.72-.61-1.58-.92-2.6-.92h-42.85c-1.02,0-1.53.51-1.53,1.53v25.4c0,.61.3,1.07.91,1.38.61.3,1.21.36,1.83.15,3.65-1.63,8.4-2.45,14.27-2.45,6.48,0,11.44.82,14.88,2.45,3.44,1.63,5.67,2.96,6.68,3.98.61.41.91.92.91,1.53v21.42c0,1.84-.81,2.35-2.43,1.53-1.83-1.02-4.56-2.34-8.2-3.98-3.65-1.63-7.59-2.45-11.85-2.45-2.84,0-5.67.46-8.5,1.38-2.84.92-5.27,1.89-7.29,2.91-.81.41-1.22.92-1.22,1.53v37.95c0,.82.51,1.23,1.53,1.23h42.85c1.02,0,1.88-.31,2.6-.92.71-.61,1.07-1.42,1.07-2.45,0-.61.31-.92.92-.92h1.84c.61,0,.92.31.92.92l13.47,25.4c0,.82-.51,1.23-1.53,1.23h-92.43c-.61,0-.92-.31-.92-.92Z"/>
    <path class="cls-1" d="M952.6,772.78h-29.07l-.61-.31-.31-.31-.31-.31-.61-1.53-.31-.31.31-.31.3-.31h.31c.81,0,1.53-.31,2.14-.92.41-.61.41-1.43,0-2.45l-15.92-34.28c-.61-1.02-1.12-1.02-1.53,0l-15.91,34.28c-.41,1.02-.41,1.84,0,2.45.2.61.92.92,2.14.92h.31c.2,0,.31.11.31.31v.61l-.61,1.53-.31.31c0,.21-.11.31-.31.31-.2.21-.41.31-.61.31h-32.75c-.82,0-1.02-.31-.61-.92l.61-1.53c.2-.61.71-.92,1.53-.92,2.65,0,4.39-1.12,5.2-3.36l28.46-60.91c.61-1.02.61-2.14,0-3.37l-29.69-63.97c-.82-1.22-1.64-2.04-2.45-2.45-1.02-.61-2.04-.92-3.06-.92-.41,0-.72-.1-.92-.3l-.31-.31-.31-.31-.61-1.53v-.61c0-.2.1-.31.3-.31h32.75c.61,0,1.12.31,1.53.92l.61,1.53c.2.61,0,.92-.61.92-2.25,0-2.96,1.12-2.14,3.37l17.45,37.34c.41,1.02.92,1.02,1.53,0l17.14-37.34c1.02-2.24.41-3.37-1.84-3.37-.82,0-1.02-.3-.61-.92l.61-1.53c.2-.61.71-.92,1.53-.92h32.44c.41,0,.61.11.61.31v.61l-.92,1.53v.31c-.2.2-.41.31-.61.31,0,.2-.21.3-.61.3-1.02,0-2.14.31-3.37.92-.61.41-1.33,1.23-2.14,2.45l-29.69,63.97c-.61,1.23-.61,2.35,0,3.37l28.16,60.91c1.02,2.25,2.86,3.36,5.51,3.36.61,0,1.12.31,1.53.92l.61,1.53c.2.61,0,.92-.61.92h-3.67Z"/>
    <path class="cls-1" d="M970.96,772.17l-.31-.31v-1.53c0-.2.1-.31.31-.31v-.31c.2-.2.41-.31.61-.31h.3c1.02,0,1.84-.41,2.45-1.22.81-.61,1.22-1.32,1.22-2.14v-128.24c0-1.02-.41-1.84-1.22-2.45-.61-.61-1.43-.92-2.45-.92h-.3l-.61-.3v-.31c0-.2-.11-.31-.31-.31v-1.53c0-.2.05-.31.15-.31s.15-.1.15-.3l.61-.61h32.75c.61,0,.92.41.92,1.22v1.53c0,.61-.31.92-.92.92-2.45,0-3.67,1.12-3.67,3.37v128.24c0,2.25,1.22,3.36,3.67,3.36.61,0,.92.31.92.92v1.53c0,.61-.31.92-.92.92h-32.75l-.61-.31v-.31Z"/>
    <path class="cls-1" d="M1069.21,775.23c-5.31,0-10.46-.77-15.46-2.29-5-1.53-9.44-3.57-13.31-6.12-3.88-2.55-7.04-5.45-9.49-8.72-2.45-3.26-3.67-6.53-3.67-9.79v-92.73c0-3.26,1.22-6.53,3.67-9.8,2.45-3.26,5.61-6.22,9.49-8.88,3.87-2.65,8.31-4.74,13.31-6.27,5-1.53,10.15-2.29,15.46-2.29,13.87,0,24.48,2.29,31.83,6.88,7.35,4.59,11.02,10.15,11.02,16.68,0,2.04.71,3.27,2.14,3.67.41.41.61.71.61.92v1.84c0,.2-.2.51-.61.92l-29.99,15c-.41.2-.76.2-1.07,0-.31-.2-.46-.51-.46-.92v-3.06c0-.41.1-.61.31-.61.41-.41.86-.92,1.38-1.53.51-.61.76-1.12.76-1.53v-8.57c0-3.67-1.17-6.58-3.52-8.72-2.35-2.14-5.77-3.21-10.25-3.21-4.08,0-7.34.82-9.79,2.45-2.45,1.64-4.39,3.47-5.82,5.51-1.63,2.25-2.75,4.9-3.37,7.96v79.88c.61,3.06,1.73,5.72,3.37,7.96,1.43,2.04,3.37,3.88,5.82,5.51,2.45,1.64,5.71,2.45,9.79,2.45,9.18,0,13.77-4.08,13.77-12.24v-8.26c0-.61-.26-1.17-.76-1.68-.51-.51-.97-.97-1.38-1.38-.21-.2-.31-.5-.31-.92v-2.75c0-.41.15-.77.46-1.07s.66-.25,1.07.15l29.99,15c.41,0,.61.31.61.92v1.53c0,.61-.2.92-.61.92-1.43.41-2.14,1.74-2.14,3.98,0,6.53-3.67,12.04-11.02,16.53-7.34,4.48-17.96,6.73-31.83,6.73Z"/>
    <path class="cls-1" d="M1166.06,774.92c-5.33,0-10.34-.77-15.05-2.29-4.71-1.53-8.8-3.62-12.29-6.28-3.48-2.65-6.29-5.56-8.45-8.72-2.15-3.16-3.22-6.48-3.22-9.95v-92.73c0-3.26,1.07-6.53,3.22-9.8,2.15-3.26,4.96-6.17,8.45-8.72,3.48-2.55,7.57-4.64,12.29-6.28,4.7-1.63,9.72-2.45,15.05-2.45h11.06c5.12,0,10.03.82,14.74,2.45,4.71,1.63,8.86,3.72,12.44,6.28,3.58,2.55,6.45,5.46,8.6,8.72,2.15,3.27,3.23,6.53,3.23,9.8v92.73c0,3.47-1.08,6.79-3.23,9.95-2.15,3.16-5.02,6.07-8.6,8.72-3.58,2.66-7.73,4.75-12.44,6.28-4.71,1.53-9.62,2.29-14.74,2.29h-11.06ZM1151.54,741.26c0,3.06.61,5.71,1.84,7.96,1.02,2.04,2.6,3.88,4.74,5.51,2.14,1.63,5.25,2.45,9.33,2.45h7.65c4.08,0,7.14-.81,9.18-2.45,2.04-1.63,3.57-3.47,4.59-5.51,1.02-2.24,1.73-4.9,2.14-7.96v-79.88c-.41-3.06-1.13-5.71-2.14-7.96-1.02-2.04-2.55-3.82-4.59-5.36-2.04-1.53-5.1-2.39-9.18-2.6h-7.65c-4.08.21-7.19,1.07-9.33,2.6-2.14,1.53-3.72,3.32-4.74,5.36-1.23,2.25-1.84,4.9-1.84,7.96v79.88Z"/>
  </g>
  <g>
    <path class="cls-1" d="M496.73,719.67s0,0,0,0c-.23.09-88.71,32.96-88.71-14.29s88.71-14.72,88.71-14.72l46.08,14.69c.16.05.16.28,0,.33l-46.07,13.99Z"/>
    <path class="cls-1" d="M526.41,739.23s0,0,0,0c-.08.13-31.8,49.05-49.22,25.64-17.45-23.44,38.52-40.01,38.52-40.01l28.25-9.72c.1-.03.18.08.12.16l-17.67,23.92Z"/>
    <path class="cls-1" d="M526.41,669.41s0,0,0,0c-.08-.13-31.8-49.05-49.22-25.64-17.45,23.44,38.52,40.01,38.52,40.01l28.25,9.72c.1.03.18-.08.12-.16l-17.67-23.92Z"/>
  </g>
  <g>
    <path class="cls-1" d="M1333.62,719.67s0,0,0,0c.23.09,88.71,32.96,88.71-14.29,0-47.31-88.71-14.72-88.71-14.72l-46.08,14.69c-.16.05-.16.28,0,.33l46.07,13.99Z"/>
    <path class="cls-1" d="M1303.93,739.23s0,0,0,0c.08.13,31.8,49.05,49.22,25.64,17.45-23.44-38.52-40.01-38.52-40.01l-28.25-9.72c-.1-.03-.18.08-.12.16l17.67,23.92Z"/>
    <path class="cls-1" d="M1303.93,669.41s0,0,0,0c.08-.13,31.8-49.05,49.22-25.64,17.45,23.44-38.52,40.01-38.52,40.01l-28.25,9.72c-.1.03-.18-.08-.12-.16l17.67-23.92Z"/>
  </g>
</svg>